<svg height="472pt" viewBox="-12 0 472 472" width="472pt" xmlns="http://www.w3.org/2000/svg"><path d="m448 456v16h-200l-7.601562-53.039062-.398438-2.960938v-56h112c53.019531 0 96 42.980469 96 96zm0 0" fill="#3d9ae2"/><path d="m448 456v16h-200l-7.601562-53.039062c28.828124-16.808594 55.824218-36.566407 80.5625-58.960938h31.039062c53.019531 0 96 42.980469 96 96zm0 0" fill="#1e81ce"/><path d="m208 388v28l-3.199219 22.160156-4.800781 33.839844h-200v-16c0-53.019531 42.980469-96 96-96h112zm0 0" fill="#3d9ae2"/><path d="m248 472h-48l4.800781-33.839844 3.199219-22.160156h32l.398438 2.960938zm0 0" fill="#ff9478"/><path d="m234.640625 384-10.640625-8-10.640625 8-5.359375 4v28h32v-28zm0 0" fill="#ff7956"/><path d="m256 360h24v-45.441406c-7.28125 3.519531-104.71875 3.519531-112 0v45.441406zm0 0" fill="#f2d0a2"/><path d="m360 424h16v48h-16zm0 0" fill="#1a6fb0"/><path d="m72 424h16v48h-16zm0 0" fill="#1e81ce"/><path d="m424 192h-16v-16h-16v16h-16v16h16v16h16v-16h16zm0 0" fill="#ff7956"/><path d="m54.625 44.6875-11.3125-11.3125-11.3125 11.3125-11.3125-11.3125-11.3125 11.3125 11.3125 11.3125-11.3125 11.3125 11.3125 11.3125 11.3125-11.3125 11.3125 11.3125 11.3125-11.3125-11.3125-11.3125zm0 0" fill="#ff7956"/><path d="m48 216h48v16h-48zm0 0" fill="#ffa733"/><g fill="#ffb655"><path d="m344 24h48v16h-48zm0 0"/><path d="m360 48h16v16h-16zm0 0"/><path d="m360 0h16v16h-16zm0 0"/></g><path d="m136 64c-2.121094 0-4.15625-.84375-5.65625-2.34375l-16-16 11.3125-11.3125 10.34375 10.34375 26.34375-26.34375c1.5-1.5 3.535156-2.34375 5.65625-2.34375h48v16h-44.6875l-29.65625 29.65625c-1.5 1.5-3.535156 2.34375-5.65625 2.34375zm0 0" fill="#ffde55"/><path d="m168 312h112v16h-112zm0 0" fill="#e6c598"/><path d="m256 320c8.308594.03125 16.515625-1.828125 24-5.441406 19.570312-9.21875 32.042969-28.925782 32-50.558594v-120h-176v120c-.042969 21.632812 12.429688 41.339844 32 50.558594 7.484375 3.613281 15.691406 5.472656 24 5.441406zm0 0" fill="#ffdaaa"/><path d="m352 112v-32h-184c-26.507812 0-48 21.492188-48 48v16c0 8.835938 7.164062 16 16 16h168c26.507812 0 48-21.492188 48-48zm0 0" fill="#ffb655"/><path d="m248 472h-48l4.800781-33.839844c11.839844-5.761718 23.757813-12.160156 35.597657-19.199218zm0 0" fill="#ff7956"/><path d="m204.800781 438.160156-4.800781 33.839844h-82.320312c29.925781-8.851562 59.066406-20.171875 87.121093-33.839844zm0 0" fill="#1e81ce"/><path d="m224 376 10.640625 8 5.359375 4 16 12v-40h-64v40l16-12 5.359375-4zm0 0" fill="#ffde55"/></svg>